# xmcd CD database file
#
# Track frame offsets:
#	150
#	16800
#	36152
#	65222
#	86520
#	107122
#	121525
#	139110
#	162295
#	191770
#	213460
#	239130
#	268275
#
# Disc length: 4441 seconds
#
# Revision: 1
# Processed by: cddbd v1.5.2PL0 Copyright (c) Steve Scherf et al.
# Submitted via: CDex 1.70beta2
#
DISCID=bf11570d
DTITLE=Trijntje Oosterhuis - Strange fruit
DYEAR=2004
DGENRE=Jazz
TTITLE0=Good morning heartache
TTITLE1=Trijntje Oosterhuis - Am i blue
TTITLE2=Trijntje Oosterhuis - God bless the child
TTITLE3=Trijntje Oosterhuis - All of me
TTITLE4=Trijntje Oosterhuis - Don't explain
TTITLE5=Trijntje Oosterhuis - Billie's blues
TTITLE6=Trijntje Oosterhuis - Strange fruit
TTITLE7=Trijntje Oosterhuis - What a little moonlight can do
TTITLE8=Trijntje Oosterhuis - I love your porgy
TTITLE9=Trijntje Oosterhuis - They can't take that away from me
TTITLE10=Trijntje Oosterhuis - The man I love 
TTITLE11=Trijntje Oosterhuis - Summertime
TTITLE12=Trijntje Oosterhuis - I've got rhythm
EXTD=YEAR: 2004
EXTT0=
EXTT1=
EXTT2=
EXTT3=
EXTT4=
EXTT5=
EXTT6=
EXTT7=
EXTT8=
EXTT9=
EXTT10=
EXTT11=
EXTT12=
PLAYORDER=
